<?xml version="1.0" encoding="UTF-8" standalone="no"?>
<!-- Created with Inkscape (http://www.inkscape.org/) -->

<svg
   xmlns:dc="http://purl.org/dc/elements/1.1/"
   xmlns:cc="http://creativecommons.org/ns#"
   xmlns:rdf="http://www.w3.org/1999/02/22-rdf-syntax-ns#"
   xmlns:svg="http://www.w3.org/2000/svg"
   xmlns="http://www.w3.org/2000/svg"
   xmlns:sodipodi="http://sodipodi.sourceforge.net/DTD/sodipodi-0.dtd"
   xmlns:inkscape="http://www.inkscape.org/namespaces/inkscape"
   width="60.552204mm"
   height="61.634621mm"
   viewBox="0 0 60.552204 61.634621"
   version="1.1"
   id="svg8"
   sodipodi:docname="quesion-mark.svg"
   inkscape:version="0.92.2 (5c3e80d, 2017-08-06)">
  <defs
     id="defs2" />
  <sodipodi:namedview
     id="base"
     pagecolor="#ffffff"
     bordercolor="#666666"
     borderopacity="1.0"
     inkscape:pageopacity="0.0"
     inkscape:pageshadow="2"
     inkscape:zoom="4"
     inkscape:cx="-22.027662"
     inkscape:cy="74.665268"
     inkscape:document-units="mm"
     inkscape:current-layer="layer2"
     showgrid="false"
     inkscape:window-width="3840"
     inkscape:window-height="2004"
     inkscape:window-x="-16"
     inkscape:window-y="-16"
     inkscape:window-maximized="1"
     inkscape:snap-global="false"
     fit-margin-top="0"
     fit-margin-left="0"
     fit-margin-right="0"
     fit-margin-bottom="0">
    <inkscape:grid
       type="xygrid"
       id="grid4541"
       originx="-96.567677"
       originy="-120.5478" />
  </sodipodi:namedview>
  <metadata
     id="metadata5">
    <rdf:RDF>
      <cc:Work
         rdf:about="">
        <dc:format>image/svg+xml</dc:format>
        <dc:type
           rdf:resource="http://purl.org/dc/dcmitype/StillImage" />
        <dc:title></dc:title>
      </cc:Work>
    </rdf:RDF>
  </metadata>
  <g
     inkscape:label="Layer 1"
     inkscape:groupmode="layer"
     id="layer1"
     transform="translate(-96.567675,-114.81758)">
    <path
       style="fill:#79baec;fill-opacity:0.94117647;stroke:#79baec;stroke-width:0.26499999;stroke-miterlimit:4;stroke-dasharray:none;stroke-opacity:1"
       d="m 156.98738,145.09369 c 0,3.99037 -0.77537,7.79963 -2.18365,11.28537 -1.35547,3.35498 -2.82955,6.78442 -5.23067,9.41296 -2.3216,2.54149 -4.69844,4.9179 -7.76405,6.54672 -2.02871,1.07789 -5.73867,2.21143 -8.00966,2.80609 -2.44509,0.64024 -5.33873,1.17487 -7.98457,1.17487 -2.81263,0 -5.76915,-0.76605 -8.35196,-1.4866 -2.61949,-0.73079 -4.86127,-2.04038 -7.14102,-3.40899 -1.79564,-1.07799 -3.18912,-2.80541 -4.71627,-4.22139 -1.98178,-1.83752 -2.96773,-3.93821 -4.39898,-6.24651 -1.468272,-2.36801 -2.617614,-4.95451 -3.388033,-7.6995 -0.728643,-2.59615 -1.118342,-5.33408 -1.118342,-8.16302 0,-3.46539 0.537998,-7.49578 1.614243,-10.59472 1.714632,-4.93711 3.273552,-7.56018 7.105812,-10.95312 2.67969,-2.37248 6.86061,-5.44454 10.26226,-6.74857 3.3493,-1.28398 7.36022,-1.8472 11.16128,-1.8472 3.59072,0 7.03481,0.62783 10.22846,1.77971 2.35312,0.84871 4.52352,2.30933 6.56321,3.68553 2.98841,2.0163 5.45554,4.5074 7.55148,7.43629 1.50291,2.10019 2.9299,4.1208 3.85865,6.57495 1.25495,3.31611 1.94181,6.91141 1.94181,10.66713 z"
       id="path815"
       inkscape:connector-curvature="0"
       sodipodi:nodetypes="sssssssssssssssssssss" />
  </g>
  <g
     inkscape:groupmode="layer"
     id="layer2"
     inkscape:label="Layer 2"
     transform="translate(-96.567675,-114.81758)">
    <path
       sodipodi:nodetypes="sssssssssssssssssssss"
       inkscape:connector-curvature="0"
       id="path4524"
       d="m 153.51597,145.28206 c 0,3.61864 -0.53977,7.07305 -1.80313,10.23408 -1.21597,3.04243 -2.1515,5.84078 -4.30551,8.22445 -2.08268,2.30474 -4.29235,4.20825 -7.04248,5.68534 -1.81992,0.97748 -4.9718,2.06332 -7.00908,2.60258 -2.19346,0.5806 -4.9656,0.90629 -7.33915,0.90629 -2.52316,0 -4.911,-0.27114 -7.22801,-0.92455 -2.34992,-0.66272 -4.36098,-1.67403 -6.40612,-2.91515 -1.61084,-0.97757 -2.7287,-2.58814 -4.09869,-3.87221 -1.77783,-1.66634 -2.66232,-3.08657 -3.94627,-5.17983 -1.31717,-2.14742 -2.48044,-4.58112 -3.17158,-7.07039 -0.65365,-2.3543 -1.355809,-5.67451 -1.355809,-8.23992 0,-3.14257 1.121919,-6.61053 2.087399,-9.42078 1.53818,-4.47719 2.87343,-6.55408 6.3113,-9.63094 2.40392,-2.15147 5.91152,-4.41163 8.96311,-5.59418 3.00462,-1.16438 6.94998,-1.76862 10.35986,-1.76862 3.2212,0 5.71876,0.50702 8.58374,1.5516 2.11096,0.76965 3.99566,2.15653 5.82545,3.40452 2.68086,1.82847 4.16315,3.47496 6.04339,6.13101 1.34825,1.90454 3.11003,4.06901 3.9432,6.29454 1.12579,3.00721 1.58838,6.17631 1.58838,9.58216 z"
       style="fill:#beeaf8;fill-opacity:1;stroke:#beeaf8;stroke-width:0.23901743;stroke-miterlimit:4;stroke-dasharray:none;stroke-opacity:1" />
    <path
       style="fill:#79baec;fill-opacity:1;stroke:#79baec;stroke-width:0.27471825;stroke-miterlimit:4;stroke-dasharray:none;stroke-opacity:1"
       d="m 139.69074,135.83402 c 0,1.23498 -0.17183,2.39676 -0.49289,3.52887 -0.26337,0.9287 -0.62716,1.84825 -1.07889,2.68004 -0.96329,1.77373 -2.32646,3.29874 -3.96855,4.45405 -1.15249,0.81086 -3.23417,1.9895 -4.6196,2.39429 -1.16124,0.33929 0.0241,3.96441 -0.6855,4.94662 -0.52016,0.71999 -1.72853,0.70824 -2.27399,0.71929 -1.04964,0.0213 -1.46881,0.31619 -1.91869,-0.10994 -0.89621,-0.84887 -0.845,-3.57349 -0.64619,-5.06367 0.0347,-0.25988 -0.005,-4.01929 0.58644,-4.28005 0.57821,-0.25505 1.3407,0.13974 2.03469,0.0157 1.13715,-0.20316 0.63736,0.15753 2.04215,-0.38765 1.77679,-0.68956 1.97409,-0.82448 3.05111,-1.76963 0.92235,-0.80943 1.55415,-1.73072 2.446,-2.93298 1.02957,-1.38793 0.94957,-1.80841 1.10605,-3.44636 0.0643,-0.67337 0.0561,-1.99081 -0.0879,-2.7834 -0.16176,-0.89026 -0.57973,-1.71294 -1.11285,-2.56861 -0.87929,-1.41127 -0.8438,-1.61617 -2.3257,-2.88254 -1.3077,-1.1175 -2.18933,-1.3841 -4.38542,-1.39314 -1.91274,-0.008 -2.86822,-0.0111 -4.0852,0.65801 -1.5228,0.83727 -2.02556,1.32383 -3.01218,2.44268 -0.63062,0.71514 -1.4383,2.37624 -1.51422,3.45658 -0.0467,0.66499 -0.28041,2.28571 -0.71029,2.72389 -0.3971,0.40476 -1.24239,0.4504 -2.11573,0.36752 -0.84431,-0.0801 -1.58826,0.0641 -1.58826,-0.51239 0,-3.75918 0.89051,-7.40375 3.43717,-9.78173 2.32794,-2.17376 5.45354,-3.5041 8.88985,-3.5041 1.84397,0 3.66462,0.21771 5.2544,0.90862 1.4714,0.63946 2.73555,1.70798 3.86511,2.81518 0.81724,0.80106 1.7609,1.70893 2.34538,2.70101 1.14082,1.93642 1.56372,4.19368 1.56372,6.60378 z"
       id="path4545"
       inkscape:connector-curvature="0"
       sodipodi:nodetypes="sssssssssssssssssssssssscssssscs" />
    <path
       style="fill:#79baec;fill-opacity:1;stroke:#79baec;stroke-width:0.26499999;stroke-miterlimit:4;stroke-dasharray:none;stroke-opacity:1"
       d="m 129.57969,162.72397 c 0,0.85038 -0.0596,1.9259 -0.49763,2.45766 -0.5028,0.61043 -1.43734,0.61577 -2.22805,0.61577 -0.69863,0 -1.89606,0.0674 -2.37298,-0.47342 -0.53308,-0.60452 -0.25916,-1.63594 -0.25916,-2.60001 0,-1.28156 -0.34502,-2.62673 0.51834,-3.17582 0.36715,-0.2335 1.69573,-0.36533 2.13718,-0.36533 0.71714,0 1.93522,0.12219 2.4217,0.74534 0.51719,0.66248 0.2806,1.85459 0.2806,2.79581 z"
       id="path4550"
       inkscape:connector-curvature="0"
       sodipodi:nodetypes="sscssscss" />
  </g>
</svg>
