<?xml version="1.0" encoding="UTF-8" standalone="no"?>
<!-- Created with Inkscape (http://www.inkscape.org/) -->

<svg
   xmlns:dc="http://purl.org/dc/elements/1.1/"
   xmlns:cc="http://creativecommons.org/ns#"
   xmlns:rdf="http://www.w3.org/1999/02/22-rdf-syntax-ns#"
   xmlns:svg="http://www.w3.org/2000/svg"
   xmlns="http://www.w3.org/2000/svg"
   xmlns:sodipodi="http://sodipodi.sourceforge.net/DTD/sodipodi-0.dtd"
   xmlns:inkscape="http://www.inkscape.org/namespaces/inkscape"
   width="59.885319mm"
   height="73.226524mm"
   viewBox="0 0 59.885319 73.226524"
   version="1.1"
   id="svg8"
   sodipodi:docname="imdio-pair.svg"
   inkscape:version="0.92.2 (5c3e80d, 2017-08-06)">
  <defs
     id="defs2" />
  <sodipodi:namedview
     id="base"
     pagecolor="#ffffff"
     bordercolor="#666666"
     borderopacity="1.0"
     inkscape:pageopacity="0.0"
     inkscape:pageshadow="2"
     inkscape:zoom="1.979899"
     inkscape:cx="-1.9315566"
     inkscape:cy="179.87581"
     inkscape:document-units="mm"
     inkscape:current-layer="layer3"
     showgrid="true"
     inkscape:snap-global="false"
     inkscape:window-width="3840"
     inkscape:window-height="2004"
     inkscape:window-x="-16"
     inkscape:window-y="-16"
     inkscape:window-maximized="1"
     fit-margin-top="0"
     fit-margin-left="0"
     fit-margin-right="0"
     fit-margin-bottom="0">
    <inkscape:grid
       type="xygrid"
       id="grid5106"
       originx="-7.3949957"
       originy="-103.62162" />
  </sodipodi:namedview>
  <metadata
     id="metadata5">
    <rdf:RDF>
      <cc:Work
         rdf:about="">
        <dc:format>image/svg+xml</dc:format>
        <dc:type
           rdf:resource="http://purl.org/dc/dcmitype/StillImage" />
        <dc:title></dc:title>
      </cc:Work>
    </rdf:RDF>
  </metadata>
  <g
     inkscape:label="Layer 1"
     inkscape:groupmode="layer"
     id="layer1"
     transform="translate(-7.3949956,-120.15186)">
    <path
       sodipodi:nodetypes="cccccccccccccccccccccccccccccc"
       inkscape:connector-curvature="0"
       id="path5110"
       d="m 72.633551,180.06744 -0.09579,-6.73932 -0.565664,-10.41643 0.518178,-9.28417 0.142563,-9.42483 0.377772,-9.94455 -0.235641,-13.05471 0.589106,-0.0474 8.170118,-0.27873 8.160167,0.34932 7.512045,-0.44802 7.427705,0.18918 7.75361,0.54739 9.35358,0.30058 9.04935,-0.14103 0.0471,7.0222 0.61268,8.62459 -0.47141,10.03728 0.42428,4.80833 0.0312,8.86396 -0.40827,6.0759 -0.0943,6.97508 0.42415,5.89112 -6.88081,-0.37704 -7.16337,0.23506 -5.65571,-0.28219 -12.489147,0.28278 -8.577466,0.23564 -9.095878,-0.28278 z"
       style="fill:#79baec;fill-opacity:1;stroke:#79baec;stroke-width:0.26392186px;stroke-linecap:butt;stroke-linejoin:miter;stroke-opacity:1" />
    <path
       style="fill:#79baec;fill-opacity:1;stroke:#79baec;stroke-width:0.12074255px;stroke-linecap:butt;stroke-linejoin:miter;stroke-opacity:1"
       d="m 83.163639,186.53603 -5.056103,-0.0536 -5.835609,-0.0753 0.31711,-3.14352 -0.05084,-3.16989 7.826877,-0.28102 6.663011,0.15721 5.942032,0.0678 5.924852,-0.1583 7.298931,-0.17501 5.11428,-0.17464 11.80664,0.0126 8.29722,0.42085 0.23995,2.76221 -0.43331,3.56646 -5.3449,-0.18763 -3.9014,0.63074 -6.44529,-0.22863 -10.14619,-0.15633 -5.930213,-0.11084 -7.141336,0.31416 -6.016598,-0.13972 z"
       id="path5113"
       inkscape:connector-curvature="0"
       sodipodi:nodetypes="ccccccccccccccccccccccc" />
    <path
       sodipodi:nodetypes="ccccccccccccccccccccccc"
       inkscape:connector-curvature="0"
       id="path5121"
       d="m 83.330682,193.318 -4.989285,-0.0536 -6.036061,-0.008 0.283701,-3.54442 -0.31811,-3.40375 8.294599,-0.0806 6.462559,0.19062 5.942032,0.0678 5.924852,-0.1583 7.298931,-0.17501 5.11428,-0.17464 11.80664,0.0126 8.11347,0.15358 0.4237,3.02948 -0.33308,3.90055 -4.14219,-0.18763 -6.64091,0.12961 -5.61008,0.13886 -6.93895,-0.18974 -6.69861,0.22325 -5.303863,0.0469 -6.851815,-0.0729 z"
       style="fill:#79baec;fill-opacity:1;stroke:#79baec;stroke-width:0.12074255px;stroke-linecap:butt;stroke-linejoin:miter;stroke-opacity:1" />
    <path
       style="fill:#79baec;fill-opacity:1;stroke:#79baec;stroke-width:0.30162483px;stroke-linecap:butt;stroke-linejoin:miter;stroke-opacity:1"
       d="m 146.76085,173.90538 -0.0957,-8.80796 -0.56531,-13.61375 0.51785,-12.13394 0.14248,-12.31779 0.37753,-12.99703 -0.23549,-17.061854 0.58873,-0.06195 8.16493,-0.364286 8.155,0.456544 7.50728,-0.58554 7.42299,0.247249 7.74869,0.715411 9.34766,0.392843 9.04361,-0.184319 0.0471,9.177672 0.61229,11.27191 -0.47111,13.11822 0.42401,6.28425 0.0312,11.58475 -0.40801,7.9409 -0.0942,9.11608 0.42388,7.6994 -6.87645,-0.49278 -7.15883,0.30722 -5.65212,-0.36881 -12.48122,0.36958 -8.57204,0.30797 -9.0901,-0.36958 z"
       id="path5125"
       inkscape:connector-curvature="0"
       sodipodi:nodetypes="cccccccccccccccccccccccccccccc" />
    <path
       style="fill:#79baec;fill-opacity:1;stroke:#79baec;stroke-width:0.26392186px;stroke-linecap:butt;stroke-linejoin:miter;stroke-opacity:1"
       d="m 8.1886104,180.06744 -0.09579,-6.73932 -0.565664,-10.41643 0.518178,-9.28417 0.142563,-9.42483 0.377772,-9.94455 -0.051893,-13.4055 8.7592236,-0.32613 9.341343,-0.12315 8.079009,0.21344 7.758434,-0.0943 9.737985,-0.20858 7.227464,-0.0301 7.064975,0.048 0.335822,7.9872 0.04572,7.96314 0.284543,8.24189 -0.189932,7.64315 0.0312,8.86396 -0.40827,6.0759 -0.0943,6.97508 0.42415,5.89112 -6.88081,-0.37704 -7.16337,0.23506 -5.65571,-0.28219 -12.489147,0.28278 -8.577466,0.23564 -9.095878,-0.28278 z"
       id="path5129"
       inkscape:connector-curvature="0"
       sodipodi:nodetypes="ccccccccccccccccccccccccccccc" />
    <path
       sodipodi:nodetypes="ccccccccccccccccccccccc"
       inkscape:connector-curvature="0"
       id="path5131"
       d="m 18.718698,186.53603 -5.056103,-0.0536 -5.4103854,-0.21704 -0.1081132,-3.00178 -0.05084,-3.16989 7.8268766,-0.28102 6.663011,0.15721 5.942032,0.0678 5.924852,-0.1583 7.298935,-0.17501 5.11428,-0.17464 11.80664,0.0126 8.29722,0.42085 0.23995,2.76221 -0.43331,3.56646 -5.3449,-0.18763 -3.9014,0.63074 -6.44529,-0.22863 -10.14619,-0.15633 -5.930217,-0.11084 -7.141336,0.31416 -6.016598,-0.13972 z"
       style="fill:#79baec;fill-opacity:1;stroke:#79baec;stroke-width:0.12074255px;stroke-linecap:butt;stroke-linejoin:miter;stroke-opacity:1" />
    <path
       style="fill:#79baec;fill-opacity:1;stroke:#79baec;stroke-width:0.12074255px;stroke-linecap:butt;stroke-linejoin:miter;stroke-opacity:1"
       d="m 18.885741,193.318 -4.989285,-0.0536 -5.7687911,-0.20845 0.016432,-3.34397 0.1071132,-3.3565 7.8693749,-0.12785 6.462559,0.19062 5.942032,0.0678 5.924853,-0.1583 7.29893,-0.17501 5.11428,-0.17464 11.80664,0.0126 8.11347,0.15358 0.4237,3.02948 -0.33308,3.90055 -4.142189,-0.18763 -6.64091,0.12961 -5.610081,0.13886 -6.938949,-0.18974 -6.698611,0.22325 -5.303863,0.0469 -6.851815,-0.0729 z"
       id="path5133"
       inkscape:connector-curvature="0"
       sodipodi:nodetypes="ccccccccccccccccccccccc" />
  </g>
  <g
     inkscape:groupmode="layer"
     id="layer3"
     inkscape:label="Layer 2"
     transform="translate(-7.3949956,-120.15186)">
    <path
       style="fill:#beeaf8;fill-opacity:1;stroke:#beeaf8;stroke-width:0.25135416px;stroke-linecap:butt;stroke-linejoin:miter;stroke-opacity:1"
       d="m 74.033701,178.66041 0.02126,-6.36891 -0.635471,-9.41868 0.583497,-9.16829 0.300014,-9.33601 0.0898,-9.33601 -0.22442,-12.43306 7.899699,-0.13465 8.169009,0.31419 9.066708,-0.31419 5.206623,-0.0898 7.2719,0.70132 9.24566,0.24126 8.39343,-0.2693 0.0449,6.68781 0.5835,8.21389 -0.40396,10.00929 0.35908,4.12939 -0.58451,8.30013 -0.1526,5.97556 0.52442,6.69017 0.16772,5.5161 -6.55316,-0.35908 -5.82557,0.11812 -6.38307,-0.16301 -11.894433,0.26931 -8.169015,0.22442 -8.662741,-0.26931 z"
       id="path1388"
       inkscape:connector-curvature="0"
       sodipodi:nodetypes="ccccccccccccccccccccccccccccc" />
    <path
       sodipodi:nodetypes="ccccccccccccccccccccccc"
       inkscape:connector-curvature="0"
       id="path5115"
       d="m 73.902264,185.775 -0.184492,-2.87503 0.196595,-2.64148 3.040004,0.0633 5.130644,-0.30283 7.415833,0.33806 7.62552,-0.014 5.819022,-0.17608 5.92307,-0.29425 7.67461,-0.10415 7.63086,0.1912 5.95481,0.20027 0.26026,2.65989 -0.44241,2.5787 -6.26315,0.005 -6.93107,0.24524 -6.08733,0.0827 -5.25688,0.0663 -7.517222,-0.12971 -5.169137,0.005 -6.907812,0.0202 -7.561425,0.0578 z"
       style="fill:#beeaf8;fill-opacity:1;stroke:#beeaf8;stroke-width:0.11499291px;stroke-linecap:butt;stroke-linejoin:miter;stroke-opacity:1" />
    <path
       style="fill:#beeaf8;fill-opacity:1;stroke:#beeaf8;stroke-width:0.11499291px;stroke-linecap:butt;stroke-linejoin:miter;stroke-opacity:1"
       d="m 73.334316,191.98902 0.517091,-2.90844 0.06296,-2.37421 3.040004,0.0633 5.531548,-0.23601 7.582877,0.0708 7.024163,-0.14764 5.852431,0.15801 6.59124,-0.0938 7.34053,-0.23778 7.49722,-0.20971 5.42027,0.10005 0.59435,3.0942 -0.44241,2.5787 -6.56383,-0.3625 -6.59698,0.41229 -6.32119,-0.0509 -5.59097,0.16653 -6.982682,-0.29675 -5.737085,0.17204 -6.273047,0.087 -7.561425,-0.009 z"
       id="path5123"
       inkscape:connector-curvature="0"
       sodipodi:nodetypes="ccccccccccccccccccccccc" />
    <path
       sodipodi:nodetypes="ccccccccccccccccccccccccccccc"
       inkscape:connector-curvature="0"
       id="path5127"
       d="m 148.16011,172.06646 0.0213,-8.32385 -0.63508,-12.30974 0.58313,-11.9825 0.29983,-12.20169 0.0897,-12.2017 -0.22427,-16.249396 7.89468,-0.175981 8.16383,0.410631 9.06096,-0.410631 5.20332,-0.117364 7.26729,0.91659 9.2398,0.315315 8.38811,-0.351962 0.0449,8.740638 0.58313,10.73514 -0.40371,13.08165 0.35885,5.3969 -0.58413,10.84786 -0.1525,7.80976 0.52408,8.74371 0.16761,7.20927 -6.54901,-0.4693 -5.82187,0.15438 -6.37902,-0.21305 -11.88689,0.35198 -8.16384,0.2933 -8.65725,-0.35197 z"
       style="fill:#beeaf8;fill-opacity:1;stroke:#beeaf8;stroke-width:0.28726175px;stroke-linecap:butt;stroke-linejoin:miter;stroke-opacity:1" />
    <path
       sodipodi:nodetypes="ccccccccccccccccccccccccccccc"
       inkscape:connector-curvature="0"
       id="path5135"
       d="m 9.7777485,185.086 0.02126,-6.36891 -0.635471,-9.41868 -0.084677,-9.03466 0.3668309,-9.80373 0.4238869,-11.34053 0.04285,-10.09445 7.8996987,-0.13465 8.169009,0.31419 9.066708,-0.31419 5.206623,-0.0898 10.673686,0.32334 8.867684,-0.0895 5.36962,0.43941 0.0449,6.68781 0.5835,8.21389 -0.13669,8.40567 0.09181,5.73301 -0.58451,8.30013 -0.1526,5.97556 0.52442,6.69017 0.16772,5.5161 -6.55316,-0.35908 -5.82557,0.11812 -6.38307,-0.16301 -11.894433,0.26931 -8.169015,0.22442 -8.662741,-0.26931 z"
       style="fill:#beeaf8;fill-opacity:1;stroke:#beeaf8;stroke-width:0.25135416px;stroke-linecap:butt;stroke-linejoin:miter;stroke-opacity:1" />
    <path
       style="fill:#beeaf8;fill-opacity:1;stroke:#beeaf8;stroke-width:0.11499291px;stroke-linecap:butt;stroke-linejoin:miter;stroke-opacity:1"
       d="m 9.7131289,127.60483 -0.184492,-2.87503 0.196595,-2.64148 3.0400031,-0.3376 5.130644,0.0981 8.171785,-0.13441 7.767261,-0.014 6.480481,-0.17608 6.86801,0.17822 5.170518,-0.10415 6.496931,-0.045 6.805257,-0.22495 -0.02322,3.41584 -0.347916,2.38972 -5.79068,0.0995 -6.93107,0.24524 -6.08733,0.0827 -5.25688,0.0663 -7.517222,-0.12971 -5.169137,0.005 -6.907812,0.0202 -7.561425,0.0578 z"
       id="path5137"
       inkscape:connector-curvature="0"
       sodipodi:nodetypes="ccccccccccccccccccccccc" />
    <path
       sodipodi:nodetypes="ccccccccccccccccccccccc"
       inkscape:connector-curvature="0"
       id="path5139"
       d="m 9.1566449,191.98902 0.2498215,-2.90844 0.06296,-2.37421 3.0400036,0.0633 5.531548,-0.23601 7.582877,0.0708 7.024163,-0.14764 5.852431,0.15801 6.59124,-0.0938 7.34053,-0.23778 7.49722,-0.20971 5.42027,0.10005 0.59435,3.0942 -0.44241,2.5787 -6.56383,-0.3625 -6.59698,0.41229 -6.32119,-0.0509 -5.59097,0.16653 -6.982682,-0.29675 -5.737085,0.17204 -6.273047,0.087 -7.561425,-0.009 z"
       style="fill:#beeaf8;fill-opacity:1;stroke:#beeaf8;stroke-width:0.11499291px;stroke-linecap:butt;stroke-linejoin:miter;stroke-opacity:1" />
  </g>
</svg>
