<?xml version="1.0" encoding="UTF-8" standalone="no"?>
<!-- Created with Inkscape (http://www.inkscape.org/) -->

<svg
   xmlns:dc="http://purl.org/dc/elements/1.1/"
   xmlns:cc="http://creativecommons.org/ns#"
   xmlns:rdf="http://www.w3.org/1999/02/22-rdf-syntax-ns#"
   xmlns:svg="http://www.w3.org/2000/svg"
   xmlns="http://www.w3.org/2000/svg"
   xmlns:sodipodi="http://sodipodi.sourceforge.net/DTD/sodipodi-0.dtd"
   xmlns:inkscape="http://www.inkscape.org/namespaces/inkscape"
   width="25.246567mm"
   height="25.725765mm"
   viewBox="0 0 25.246567 25.725765"
   version="1.1"
   id="svg8"
   sodipodi:docname="menu-3-icons.svg"
   inkscape:version="0.92.2 (5c3e80d, 2017-08-06)">
  <defs
     id="defs2" />
  <sodipodi:namedview
     id="base"
     pagecolor="#ffffff"
     bordercolor="#666666"
     borderopacity="1.0"
     inkscape:pageopacity="0.0"
     inkscape:pageshadow="2"
     inkscape:zoom="8"
     inkscape:cx="80.700767"
     inkscape:cy="64.905358"
     inkscape:document-units="mm"
     inkscape:current-layer="layer1"
     showgrid="true"
     inkscape:snap-global="false"
     inkscape:window-width="2352"
     inkscape:window-height="1986"
     inkscape:window-x="1470"
     inkscape:window-y="0"
     inkscape:window-maximized="0"
     fit-margin-top="0"
     fit-margin-left="0"
     fit-margin-right="0"
     fit-margin-bottom="0">
    <inkscape:grid
       type="xygrid"
       id="grid5106"
       originx="-46.19276"
       originy="-215.10062" />
  </sodipodi:namedview>
  <metadata
     id="metadata5">
    <rdf:RDF>
      <cc:Work
         rdf:about="">
        <dc:format>image/svg+xml</dc:format>
        <dc:type
           rdf:resource="http://purl.org/dc/dcmitype/StillImage" />
        <dc:title></dc:title>
      </cc:Work>
    </rdf:RDF>
  </metadata>
  <g
     inkscape:label="Layer 1"
     inkscape:groupmode="layer"
     id="layer1"
     transform="translate(-46.192761,-56.173598)">
    <path
       sodipodi:nodetypes="ccccccccccc"
       inkscape:connector-curvature="0"
       id="path5110"
       d="m 72.760417,180.58333 v -15.875 h 59.531253 v 15.875 l -6.07034,0.33966 -6.70511,-0.0328 -8.87973,-0.26309 -9.77359,0.16864 -9.161444,0.0617 -10.05886,-0.45208 z"
       style="fill:#79baec;fill-opacity:1;stroke:#79baec;stroke-width:0.13531162px;stroke-linecap:butt;stroke-linejoin:miter;stroke-opacity:1" />
    <path
       style="fill:#79baec;fill-opacity:1;stroke:#79baec;stroke-width:0.30162483px;stroke-linecap:butt;stroke-linejoin:miter;stroke-opacity:1"
       d="m 146.76085,173.90538 -0.0957,-8.80796 -0.56531,-13.61375 0.51785,-12.13394 0.14248,-12.31779 0.37753,-12.99703 -0.23549,-17.061854 0.58873,-0.06195 8.16493,-0.364286 8.155,0.456544 7.50728,-0.58554 7.42299,0.247249 7.74869,0.715411 9.34766,0.392843 9.04361,-0.184319 0.0471,9.177672 0.61229,11.27191 -0.47111,13.11822 0.42401,6.28425 0.0312,11.58475 -0.40801,7.9409 -0.0942,9.11608 0.42388,7.6994 -6.87645,-0.49278 -7.15883,0.30722 -5.65212,-0.36881 -12.48122,0.36958 -8.57204,0.30797 -9.0901,-0.36958 z"
       id="path5125"
       inkscape:connector-curvature="0"
       sodipodi:nodetypes="cccccccccccccccccccccccccccccc" />
    <path
       style="fill:#79baec;fill-opacity:1;stroke:#79baec;stroke-width:0.26392186px;stroke-linecap:butt;stroke-linejoin:miter;stroke-opacity:1"
       d="m 8.1886104,180.06744 -0.09579,-6.73932 -0.565664,-10.41643 0.518178,-9.28417 0.142563,-9.42483 0.377772,-9.94455 -0.051893,-13.4055 8.7592236,-0.32613 9.341343,-0.12315 8.079009,0.21344 7.758434,-0.0943 9.737985,-0.20858 7.227464,-0.0301 7.064975,0.048 0.335822,7.9872 0.04572,7.96314 0.284543,8.24189 -0.189932,7.64315 0.0312,8.86396 -0.40827,6.0759 -0.0943,6.97508 0.42415,5.89112 -6.88081,-0.37704 -7.16337,0.23506 -5.65571,-0.28219 -12.489147,0.28278 -8.577466,0.23564 -9.095878,-0.28278 z"
       id="path5129"
       inkscape:connector-curvature="0"
       sodipodi:nodetypes="ccccccccccccccccccccccccccccc" />
    <path
       sodipodi:nodetypes="ccccccccccccccccccccccc"
       inkscape:connector-curvature="0"
       id="path5131"
       d="m 18.718698,186.53603 -5.056103,-0.0536 -5.4103854,-0.21704 -0.1081132,-3.00178 -0.05084,-3.16989 7.8268766,-0.28102 6.663011,0.15721 5.942032,0.0678 5.924852,-0.1583 7.298935,-0.17501 5.11428,-0.17464 11.80664,0.0126 8.29722,0.42085 0.23995,2.76221 -0.43331,3.56646 -5.3449,-0.18763 -3.9014,0.63074 -6.44529,-0.22863 -10.14619,-0.15633 -5.930217,-0.11084 -7.141336,0.31416 -6.016598,-0.13972 z"
       style="fill:#79baec;fill-opacity:1;stroke:#79baec;stroke-width:0.12074255px;stroke-linecap:butt;stroke-linejoin:miter;stroke-opacity:1" />
    <path
       style="fill:#79baec;fill-opacity:1;stroke:#79baec;stroke-width:0.12074255px;stroke-linecap:butt;stroke-linejoin:miter;stroke-opacity:1"
       d="m 18.885741,193.318 -4.989285,-0.0536 -5.7687911,-0.20845 0.016432,-3.34397 0.1071132,-3.3565 7.8693749,-0.12785 6.462559,0.19062 5.942032,0.0678 5.924853,-0.1583 7.29893,-0.17501 5.11428,-0.17464 11.80664,0.0126 8.11347,0.15358 0.4237,3.02948 -0.33308,3.90055 -4.142189,-0.18763 -6.64091,0.12961 -5.610081,0.13886 -6.938949,-0.18974 -6.698611,0.22325 -5.303863,0.0469 -6.851815,-0.0729 z"
       id="path5133"
       inkscape:connector-curvature="0"
       sodipodi:nodetypes="ccccccccccccccccccccccc" />
    <path
       style="fill:#79baec;fill-opacity:1;stroke:#79baec;stroke-width:0.11115038px;stroke-linecap:butt;stroke-linejoin:miter;stroke-opacity:1"
       d="M 71.4375,81.599402 V 56.229173 h 25.135417 v 25.370229 l -6.220037,0.244362 -6.524321,-0.145639 -7.073938,-0.333309 z"
       id="path2545"
       inkscape:connector-curvature="0"
       sodipodi:nodetypes="cccccccc" />
    <path
       sodipodi:nodetypes="cccccccc"
       inkscape:connector-curvature="0"
       id="path2549"
       d="M 96.646603,81.59916 V 56.228931 H 121.78202 V 81.59916 l -6.22004,0.244362 -6.52432,-0.145639 -7.07394,-0.333308 z"
       style="fill:#79baec;fill-opacity:1;stroke:#79baec;stroke-width:0.11115038px;stroke-linecap:butt;stroke-linejoin:miter;stroke-opacity:1" />
    <path
       style="fill:#79baec;fill-opacity:1;stroke:#79baec;stroke-width:0.11115038px;stroke-linecap:butt;stroke-linejoin:miter;stroke-opacity:1"
       d="M 121.8466,81.59916 V 56.228931 h 25.13542 V 81.59916 l -6.22004,0.244362 -6.52432,-0.145639 -7.07394,-0.333308 z"
       id="path2553"
       inkscape:connector-curvature="0"
       sodipodi:nodetypes="cccccccc" />
    <path
       sodipodi:nodetypes="cccccccc"
       inkscape:connector-curvature="0"
       id="path2727"
       d="M 46.248336,81.599402 V 56.229173 h 25.135417 v 25.370229 l -6.220037,0.244362 -6.524321,-0.145639 -7.073938,-0.333309 z"
       style="fill:#79baec;fill-opacity:1;stroke:#79baec;stroke-width:0.11115038px;stroke-linecap:butt;stroke-linejoin:miter;stroke-opacity:1" />
  </g>
  <g
     inkscape:groupmode="layer"
     id="layer3"
     inkscape:label="Layer 2"
     transform="translate(-46.192761,-56.173598)">
    <path
       sodipodi:nodetypes="ccccccccccccccccccccccc"
       inkscape:connector-curvature="0"
       id="path5115"
       d="m 73.875391,178.93186 0.618838,-6.09195 -0.54734,-5.91745 4.254066,-0.0537 6.402601,-0.22634 7.741194,0.10216 6.013604,0.54126 5.909306,-0.4184 6.29676,0.63988 6.58237,-0.71131 7.57809,0.0682 5.95051,-0.38757 -0.7841,6.4994 0.60208,6.30279 -6.87283,0.19799 -7.35128,-0.3993 -5.32698,-0.22585 -6.48149,0.21645 -6.803078,0.32836 -6.157583,-0.22724 -6.619331,-0.48261 -6.752753,0.10635 z"
       style="fill:#beeaf8;fill-opacity:1;stroke:#beeaf8;stroke-width:0.15590844px;stroke-linecap:butt;stroke-linejoin:miter;stroke-opacity:1" />
    <path
       sodipodi:nodetypes="ccccccccccccccccccccccccccccc"
       inkscape:connector-curvature="0"
       id="path5127"
       d="m 148.16011,172.06646 0.0213,-8.32385 -0.63508,-12.30974 0.58313,-11.9825 0.29983,-12.20169 0.0897,-12.2017 -0.22427,-16.249396 7.89468,-0.175981 8.16383,0.410631 9.06096,-0.410631 5.20332,-0.117364 7.26729,0.91659 9.2398,0.315315 8.38811,-0.351962 0.0449,8.740638 0.58313,10.73514 -0.40371,13.08165 0.35885,5.3969 -0.58413,10.84786 -0.1525,7.80976 0.52408,8.74371 0.16761,7.20927 -6.54901,-0.4693 -5.82187,0.15438 -6.37902,-0.21305 -11.88689,0.35198 -8.16384,0.2933 -8.65725,-0.35197 z"
       style="fill:#beeaf8;fill-opacity:1;stroke:#beeaf8;stroke-width:0.28726175px;stroke-linecap:butt;stroke-linejoin:miter;stroke-opacity:1" />
    <path
       sodipodi:nodetypes="ccccccccccccccccccccccccccccc"
       inkscape:connector-curvature="0"
       id="path5135"
       d="m 9.7777485,185.086 0.02126,-6.36891 -0.635471,-9.41868 -0.084677,-9.03466 0.3668309,-9.80373 0.4238869,-11.34053 0.04285,-10.09445 7.8996987,-0.13465 8.169009,0.31419 9.066708,-0.31419 5.206623,-0.0898 10.673686,0.32334 8.867684,-0.0895 5.36962,0.43941 0.0449,6.68781 0.5835,8.21389 -0.13669,8.40567 0.09181,5.73301 -0.58451,8.30013 -0.1526,5.97556 0.52442,6.69017 0.16772,5.5161 -6.55316,-0.35908 -5.82557,0.11812 -6.38307,-0.16301 -11.894433,0.26931 -8.169015,0.22442 -8.662741,-0.26931 z"
       style="fill:#beeaf8;fill-opacity:1;stroke:#beeaf8;stroke-width:0.25135416px;stroke-linecap:butt;stroke-linejoin:miter;stroke-opacity:1" />
    <path
       style="fill:#beeaf8;fill-opacity:1;stroke:#beeaf8;stroke-width:0.11499291px;stroke-linecap:butt;stroke-linejoin:miter;stroke-opacity:1"
       d="m 9.7131289,127.60483 -0.184492,-2.87503 0.196595,-2.64148 3.0400031,-0.3376 5.130644,0.0981 8.171785,-0.13441 7.767261,-0.014 6.480481,-0.17608 6.86801,0.17822 5.170518,-0.10415 6.496931,-0.045 6.805257,-0.22495 -0.02322,3.41584 -0.347916,2.38972 -5.79068,0.0995 -6.93107,0.24524 -6.08733,0.0827 -5.25688,0.0663 -7.517222,-0.12971 -5.169137,0.005 -6.907812,0.0202 -7.561425,0.0578 z"
       id="path5137"
       inkscape:connector-curvature="0"
       sodipodi:nodetypes="ccccccccccccccccccccccc" />
    <path
       sodipodi:nodetypes="ccccccccccccccccccccccc"
       inkscape:connector-curvature="0"
       id="path5139"
       d="m 9.1566449,191.98902 0.2498215,-2.90844 0.06296,-2.37421 3.0400036,0.0633 5.531548,-0.23601 7.582877,0.0708 7.024163,-0.14764 5.852431,0.15801 6.59124,-0.0938 7.34053,-0.23778 7.49722,-0.20971 5.42027,0.10005 0.59435,3.0942 -0.44241,2.5787 -6.56383,-0.3625 -6.59698,0.41229 -6.32119,-0.0509 -5.59097,0.16653 -6.982682,-0.29675 -5.737085,0.17204 -6.273047,0.087 -7.561425,-0.009 z"
       style="fill:#beeaf8;fill-opacity:1;stroke:#beeaf8;stroke-width:0.11499291px;stroke-linecap:butt;stroke-linejoin:miter;stroke-opacity:1" />
    <path
       style="fill:#beeaf8;fill-opacity:1;stroke:#beeaf8;stroke-width:0.13340364px;stroke-linecap:butt;stroke-linejoin:miter;stroke-opacity:1"
       d="m 72.689423,79.846095 0.246586,-11.542474 -0.218096,-10.872752 5.366457,0.496022 5.366301,-0.526531 6.995435,0.34674 4.873814,-0.413518 -0.310068,11.220166 0.239908,11.580779 -4.662204,0.178685 -6.316903,-0.236801 -5.680922,-0.442467 z"
       id="path2547"
       inkscape:connector-curvature="0"
       sodipodi:nodetypes="ccccccccccccc" />
    <path
       sodipodi:nodetypes="ccccccccccccc"
       inkscape:connector-curvature="0"
       id="path2551"
       d="m 97.898959,79.845853 0.246587,-11.542473 -0.218097,-10.872754 5.366451,0.496023 5.36631,-0.52653 6.99543,0.34674 4.87382,-0.413519 -0.31008,11.220166 0.23992,11.58078 -4.66221,0.178684 -6.3169,-0.236801 -5.68092,-0.442466 z"
       style="fill:#beeaf8;fill-opacity:1;stroke:#beeaf8;stroke-width:0.13340364px;stroke-linecap:butt;stroke-linejoin:miter;stroke-opacity:1" />
    <path
       style="fill:#beeaf8;fill-opacity:1;stroke:#beeaf8;stroke-width:0.13340364px;stroke-linecap:butt;stroke-linejoin:miter;stroke-opacity:1"
       d="m 123.09939,79.845853 0.24659,-11.542473 -0.2181,-10.872754 5.36646,0.496023 5.3663,-0.52653 6.99543,0.34674 4.87382,-0.413519 -0.31006,11.220166 0.2399,11.58078 -5.68747,0.310976 -5.29163,-0.369093 -5.68093,-0.442466 z"
       id="path2555"
       inkscape:connector-curvature="0"
       sodipodi:nodetypes="ccccccccccccc" />
    <path
       sodipodi:nodetypes="ccccccccccccc"
       inkscape:connector-curvature="0"
       id="path2729"
       d="m 47.500259,79.846095 0.246586,-11.542474 -0.218096,-10.872752 5.366457,0.496022 5.366301,-0.526531 6.995435,0.34674 4.873814,-0.413518 -0.310068,11.220166 0.239908,11.580779 -4.662204,0.178685 -6.316903,-0.236801 -5.680922,-0.442467 z"
       style="fill:#beeaf8;fill-opacity:1;stroke:#beeaf8;stroke-width:0.13340364px;stroke-linecap:butt;stroke-linejoin:miter;stroke-opacity:1" />
    <circle
       style="fill:#79baec;fill-opacity:1;stroke:#79baec;stroke-width:0.23849998;stroke-miterlimit:4;stroke-dasharray:none;stroke-opacity:1"
       id="path2733"
       cx="56.885418"
       cy="66.812492"
       r="7.1437502" />
    <path
       style="fill:#79baec;fill-opacity:1;stroke:#79baec;stroke-width:0.26458332px;stroke-linecap:butt;stroke-linejoin:miter;stroke-opacity:1"
       d="M 67.46875,78.718742 62.177083,73.427075 V 72.104158 H 63.5 l 5.291667,5.291667 v 1.322916 z"
       id="path2735"
       inkscape:connector-curvature="0"
       sodipodi:nodetypes="ccccccc" />
    <ellipse
       cy="66.812492"
       cx="56.885418"
       id="circle2737"
       style="fill:#beeaf8;fill-opacity:1;stroke:#beeaf8;stroke-width:0.19079998;stroke-miterlimit:4;stroke-dasharray:none;stroke-opacity:1"
       rx="5.7150002"
       ry="5.7149997" />
  </g>
  <g
     inkscape:groupmode="layer"
     id="layer2"
     inkscape:label="Layer 3"
     transform="translate(26.5,108.46707)">
    <path
       transform="translate(-72.69276,-164.64067)"
       style="fill:#79baec;fill-opacity:1;stroke:#79baec;stroke-width:0.26499999;stroke-miterlimit:4;stroke-dasharray:none;stroke-opacity:1"
       d="m 119.06249,68.796867 a 9.921875,9.921875 0 0 1 -9.92187,9.921875 9.921875,9.921875 0 0 1 -9.921878,-9.921875 9.921875,9.921875 0 0 1 9.921878,-9.921875 9.921875,9.921875 0 0 1 9.92187,9.921875 z"
       id="path2585"
       inkscape:connector-curvature="0" />
    <ellipse
       style="fill:#79baec;fill-opacity:1;stroke:#79baec;stroke-width:0.26499999;stroke-miterlimit:4;stroke-dasharray:none;stroke-opacity:1"
       id="path2684"
       cx="61.583279"
       cy="-97.828178"
       rx="7.2760415"
       ry="7.9375" />
    <path
       style="fill:#79baec;fill-opacity:1;stroke:#79baec;stroke-width:0.26458332px;stroke-linecap:butt;stroke-linejoin:miter;stroke-opacity:1"
       d="m 61.548697,-85.283092 -5.357812,-0.529167 -4.630208,0.496094 1.091406,-2.844271 4.431771,-1.852083 2.513542,1.124479 1.918229,0.165365 z"
       id="path2686"
       inkscape:connector-curvature="0" />
    <path
       inkscape:connector-curvature="0"
       id="path2688"
       d="m 61.547538,-85.283092 5.688541,0.264583 4.299479,-0.297656 -1.091406,-2.844271 -4.431771,-1.852083 -2.513542,1.124479 -1.918229,0.165365 z"
       style="fill:#79baec;fill-opacity:1;stroke:#79baec;stroke-width:0.26458332px;stroke-linecap:butt;stroke-linejoin:miter;stroke-opacity:1"
       sodipodi:nodetypes="cccccccc" />
    <path
       style="fill:#79baec;fill-opacity:1;stroke:#79baec;stroke-width:0.19874999;stroke-linecap:butt;stroke-linejoin:miter;stroke-miterlimit:4;stroke-dasharray:none;stroke-opacity:1"
       d="m 15.509264,-101.53487 1.364257,-2.50528 2.05879,-0.57051 0.818555,2.38125 -1.885157,0.27285 -0.868164,-0.52089 z"
       id="path2690"
       inkscape:connector-curvature="0" />
    <path
       style="fill:#79baec;fill-opacity:1;stroke:#79baec;stroke-width:0.19843748px;stroke-linecap:butt;stroke-linejoin:miter;stroke-opacity:1"
       d="m 15.675281,-90.942978 1.346709,0.903361 1.988188,-0.01549 0.165096,1.887067 -1.904326,0.571556 -1.475113,-2.371076 z"
       id="path2698"
       inkscape:connector-curvature="0" />
    <path
       style="fill:#79baec;fill-opacity:1;stroke:#79baec;stroke-width:0.19843748px;stroke-linecap:butt;stroke-linejoin:miter;stroke-opacity:1"
       d="m 4.6913312,-91.902952 -0.4588866,0.794813 0.3184273,1.730509 -0.5565625,1.311261 -2.0905895,-0.34774 -0.08699,-1.883311 z"
       id="path2700"
       inkscape:connector-curvature="0" />
    <path
       style="fill:#79baec;fill-opacity:1;stroke:#79baec;stroke-width:0.19843748px;stroke-linecap:butt;stroke-linejoin:miter;stroke-opacity:1"
       d="m 5.5497277,-100.8498 -0.8164537,-0.78247 0.5818927,-1.59874 -1.2343777,-1.32654 -1.8762578,0.43701 0.9058328,2.58819 z"
       id="path2702"
       inkscape:connector-curvature="0" />
    <path
       style="fill:#beeaf8;fill-opacity:1;stroke:#beeaf8;stroke-width:0.11335143px;stroke-linecap:butt;stroke-linejoin:miter;stroke-opacity:1"
       d="m 18.588489,-102.85526 0.200392,0.34065 0.380718,-0.04 -0.20037,-0.34062 z"
       id="path2709"
       inkscape:connector-curvature="0"
       sodipodi:nodetypes="ccccc" />
    <path
       style="fill:#beeaf8;fill-opacity:1;stroke:#beeaf8;stroke-width:0.11335143px;stroke-linecap:butt;stroke-linejoin:miter;stroke-opacity:1"
       d="m 18.720627,-88.940235 -0.132138,0.372473 0.2754,0.265904 0.132134,-0.37244 z"
       id="path2713"
       inkscape:connector-curvature="0"
       sodipodi:nodetypes="ccccc" />
    <path
       sodipodi:nodetypes="ccccc"
       inkscape:connector-curvature="0"
       id="path2715"
       d="m 2.4088827,-90.271421 -0.3406469,0.200394 0.04005,0.38072 0.3406199,-0.200372 z"
       style="fill:#beeaf8;fill-opacity:1;stroke:#beeaf8;stroke-width:0.11335143px;stroke-linecap:butt;stroke-linejoin:miter;stroke-opacity:1" />
    <path
       style="fill:#beeaf8;fill-opacity:1;stroke:#beeaf8;stroke-width:0.11335143px;stroke-linecap:butt;stroke-linejoin:miter;stroke-opacity:1"
       d="m 4.2381695,-103.94043 -0.2563093,-0.30084 -0.3679776,0.10555 0.2562866,0.30081 z"
       id="path2717"
       inkscape:connector-curvature="0"
       sodipodi:nodetypes="ccccc" />
    <path
       style="fill:#79baec;fill-opacity:1;stroke:#79baec;stroke-width:0.63941854px;stroke-linecap:butt;stroke-linejoin:miter;stroke-opacity:1"
       d="m 9.7138999,-97.442349 v -6.394181 h 3.1970961 v 6.394178 h 6.394183 v 3.197095 h -6.394183 v 6.394183 H 9.7138999 v -6.394183 H 3.3197157 v -3.197095 z"
       id="path2721"
       inkscape:connector-curvature="0" />
  </g>
  <g
     inkscape:groupmode="layer"
     id="layer4"
     inkscape:label="Layer 4"
     transform="translate(26.5,108.46707)">
    <path
       style="fill:#79baec;fill-opacity:1;stroke:#79baec;stroke-width:0.25135416px;stroke-linecap:butt;stroke-linejoin:miter;stroke-opacity:1"
       d="m 8.170554,-145.26925 v 3.77032 2.51354 H 5.657012 1.886699 l 0.296729,3.23691 -0.296729,3.04694 h 3.770313 2.513542 v 2.51354 3.77032 l 3.123682,-0.3075 3.160172,0.3075 v -3.77032 -2.51354 h 2.513541 3.770313 l -0.333511,-3.14501 0.333511,-3.13884 h -3.770313 -2.513541 v -2.51354 -3.77032 l -3.174762,0.25136 z"
       id="path2579"
       inkscape:connector-curvature="0"
       sodipodi:nodetypes="ccccccccccccccccccccccccc" />
    <path
       transform="translate(-72.69276,-164.64067)"
       style="fill:#beeaf8;fill-opacity:1;stroke:#beeaf8;stroke-width:0.26458332px;stroke-linecap:butt;stroke-linejoin:miter;stroke-opacity:1"
       d="m 104.62466,59.92724 3.05925,2.133203 -0.0661,0.760677 -3.09237,2.513541 -0.21497,0.826823 -1.07487,-0.198437 -0.52917,0.314193 -0.14883,0.595312 1.63711,1.802474 0.0661,0.661458 -0.87639,-0.578776 -1.70325,-1.736328 -0.23151,-1.785937 0.0992,-2.10013 0.19846,-1.074871 0.82682,-0.926041 0.97566,-0.644922 z"
       id="path2588"
       inkscape:connector-curvature="0"
       sodipodi:nodetypes="cccccccccccccccccc" />
    <path
       transform="translate(-72.69276,-164.64067)"
       style="fill:#beeaf8;fill-opacity:1;stroke:#beeaf8;stroke-width:0.26458332px;stroke-linecap:butt;stroke-linejoin:miter;stroke-opacity:1"
       d="m 104.47583,69.584531 2.36472,0.198438 2.92999,2.154927 -0.0987,1.951302 -3.42656,4.459656 -1.19063,-4.266406 -0.97565,-0.479557 0.59531,-3.45612 z"
       id="path2590"
       inkscape:connector-curvature="0"
       sodipodi:nodetypes="ccccccccc" />
    <path
       transform="translate(-72.69276,-164.64067)"
       style="fill:#beeaf8;fill-opacity:1;stroke:#beeaf8;stroke-width:0.26458332px;stroke-linecap:butt;stroke-linejoin:miter;stroke-opacity:1"
       d="m 106.88322,60.224917 1.47332,1.07576 0.25724,-1.239465 z"
       id="path2602"
       inkscape:connector-curvature="0"
       sodipodi:nodetypes="cccc" />
    <path
       transform="translate(-72.69276,-164.64067)"
       style="fill:#beeaf8;fill-opacity:1;stroke:#beeaf8;stroke-width:0.26458332px;stroke-linecap:butt;stroke-linejoin:miter;stroke-opacity:1"
       d="m 115.65299,61.136973 -1.52009,2.104747 0.86528,0.888671 1.09915,-0.748355 1.80073,0.374178 -1.0056,-1.473324 z"
       id="path2604"
       inkscape:connector-curvature="0"
       sodipodi:nodetypes="ccccccc" />
    <path
       transform="translate(-72.69276,-164.64067)"
       style="fill:#beeaf8;fill-opacity:1;stroke:#beeaf8;stroke-width:0.26458332px;stroke-linecap:butt;stroke-linejoin:miter;stroke-opacity:1"
       d="m 118.45933,64.995678 -2.71278,0.187087 -1.21609,2.291836 0.72497,2.432153 2.61924,0.561268 0.0936,1.77734 0.46767,0.701583 0.60804,-2.338609 0.14032,-2.946646 z"
       id="path2614"
       inkscape:connector-curvature="0"
       sodipodi:nodetypes="cccccccccc" />
  </g>
</svg>
