<?xml version="1.0" encoding="UTF-8" standalone="no"?>
<!-- Created with Inkscape (http://www.inkscape.org/) -->

<svg
   xmlns:dc="http://purl.org/dc/elements/1.1/"
   xmlns:cc="http://creativecommons.org/ns#"
   xmlns:rdf="http://www.w3.org/1999/02/22-rdf-syntax-ns#"
   xmlns:svg="http://www.w3.org/2000/svg"
   xmlns="http://www.w3.org/2000/svg"
   xmlns:sodipodi="http://sodipodi.sourceforge.net/DTD/sodipodi-0.dtd"
   xmlns:inkscape="http://www.inkscape.org/namespaces/inkscape"
   width="162.4166mm"
   height="61.875168mm"
   viewBox="0 0 162.41659 61.875167"
   version="1.1"
   id="svg851"
   inkscape:version="0.92.2 (5c3e80d, 2017-08-06)"
   sodipodi:docname="two-boxes-new.svg">
  <defs
     id="defs845" />
  <sodipodi:namedview
     id="base"
     pagecolor="#ffffff"
     bordercolor="#666666"
     borderopacity="1.0"
     inkscape:pageopacity="0.0"
     inkscape:pageshadow="2"
     inkscape:zoom="2.8"
     inkscape:cx="144.51037"
     inkscape:cy="136.94079"
     inkscape:document-units="mm"
     inkscape:current-layer="svg851"
     showgrid="false"
     fit-margin-top="0"
     fit-margin-left="0"
     fit-margin-right="0"
     fit-margin-bottom="0"
     inkscape:window-width="3840"
     inkscape:window-height="2004"
     inkscape:window-x="-16"
     inkscape:window-y="-16"
     inkscape:window-maximized="1"
     inkscape:snap-global="false">
    <inkscape:grid
       type="xygrid"
       id="grid1382"
       originx="2.4044563e-006"
       originy="1.2363365e-006" />
  </sodipodi:namedview>
  <metadata
     id="metadata848">
    <rdf:RDF>
      <cc:Work
         rdf:about="">
        <dc:format>image/svg+xml</dc:format>
        <dc:type
           rdf:resource="http://purl.org/dc/dcmitype/StillImage" />
        <dc:title></dc:title>
      </cc:Work>
    </rdf:RDF>
  </metadata>
  <g
     inkscape:label="Layer 1"
     inkscape:groupmode="layer"
     id="layer1"
     transform="translate(74.140457,-90.582044)" />
  <g
     inkscape:groupmode="layer"
     id="layer2"
     inkscape:label="Layer 2"
     transform="translate(-9.5955437e-6,-5.1422968e-6)" />
  <path
     style="fill:#faffff;fill-opacity:1;stroke:#faffff;stroke-width:0.25058889px;stroke-linecap:butt;stroke-linejoin:miter;stroke-opacity:1"
     d="m 103.55944,58.317911 -0.0895,-6.443723 0.71597,-6.26472 0.0448,-6.398971 -0.80547,-6.667449 -0.26849,-3.177117 0.26849,-3.893074 -0.179,-6.801701 0.179,-5.817244 0.26848,-5.5487561 0.40274,-4.206313 6.48846,-0.134244 6.66745,0.357984 6.22132,-0.332914 8.72453,0.243418 7.74141,-0.134244 6.57796,0.581723 5.99624,-0.536976 6.57795,0.492229 -0.26848,5.146023 0.49222,6.3542201 0.2685,5.548754 -0.80547,6.801701 -0.22374,6.040984 0.89495,6.980693 -0.0448,7.070192 -0.0895,6.219976 -0.22373,4.832782 -5.63825,-0.357987 -4.83279,-0.04477 -7.47292,0.08953 -8.81537,-0.178993 -9.17335,0.268489 -6.48845,0.402731 -6.8017,0.223747 z"
     id="path1396"
     inkscape:connector-curvature="0"
     sodipodi:nodetypes="cccccccccccccccccccccccccccccccccccc" />
  <path
     sodipodi:nodetypes="ccccccccccccc"
     inkscape:connector-curvature="0"
     id="path1400"
     d="m 75.500738,-70.819824 0.378493,1.800726 -0.472983,1.553812 3.543525,-0.141739 0.283482,2.976562 4.015997,-2.834821 3.02381,-1.417411 0.199652,-0.398691 -0.201083,-0.373848 -2.927885,-1.400824 -4.157738,-3.118296 -0.141741,3.590766 z"
     style="fill:#faffff;fill-opacity:1;stroke:#faffff;stroke-width:0.26458332px;stroke-linecap:butt;stroke-linejoin:miter;stroke-opacity:1" />
</svg>
